<svg width="10" height="18" viewBox="0 0 10 18" fill="none" xmlns="http://www.w3.org/2000/svg">
<path fill-rule="evenodd" clip-rule="evenodd" d="M4.35268 15.7029C3.08486 15.6053 2.11268 15.2396 1.43611 14.6057C0.759531 13.9718 0.372488 13.088 0.274963 11.9543H1.82925C1.98773 13.4172 2.82886 14.2278 4.35268 14.3863V9.65029L4.16982 9.61372C3.59687 9.51619 3.09097 9.37905 2.65211 9.20229C2.21325 9.02553 1.84144 8.79391 1.53668 8.50743C1.23191 8.22095 1.0003 7.86439 0.841821 7.43772C0.683344 7.01105 0.604106 6.50515 0.604106 5.92C0.604106 5.44457 0.692486 5.00877 0.869249 4.61257C1.04601 4.21638 1.29591 3.86896 1.61896 3.57029C1.94201 3.27162 2.33515 3.03086 2.79839 2.848C3.26163 2.66515 3.77972 2.54324 4.35268 2.48229V0.946289H5.55954V2.464C6.23001 2.52496 6.79382 2.66515 7.25096 2.88457C7.70811 3.104 8.07991 3.36914 8.36639 3.68C8.65287 3.99086 8.86925 4.32914 9.01553 4.69486C9.16182 5.06058 9.26544 5.42019 9.32639 5.77372L7.82696 6.048C7.75382 5.74324 7.65934 5.46286 7.54353 5.20686C7.42772 4.95086 7.28449 4.72534 7.11382 4.53029C6.94315 4.33524 6.72982 4.17372 6.47382 4.04572C6.21782 3.91772 5.91306 3.82934 5.55954 3.78057V8.33372L5.81553 8.37029C6.99802 8.55315 7.89401 8.93105 8.50354 9.504C9.11306 10.077 9.41782 10.9364 9.41782 12.0823C9.41782 12.5455 9.33858 12.9874 9.18011 13.408C9.02163 13.8286 8.78087 14.2034 8.45782 14.5326C8.13477 14.8617 7.73249 15.1299 7.25096 15.3371C6.76944 15.5444 6.20563 15.6724 5.55954 15.7211V17.44H4.35268V15.7029ZM5.55954 14.4046C6.33973 14.3192 6.90658 14.0663 7.26011 13.6457C7.61363 13.2251 7.79039 12.704 7.79039 12.0823C7.79039 11.8507 7.76296 11.6191 7.70811 11.3874C7.65325 11.1558 7.54963 10.9394 7.39725 10.7383C7.24487 10.5371 7.03458 10.3634 6.76639 10.2171C6.4982 10.0709 6.15078 9.96115 5.72411 9.888L5.55954 9.86972V14.4046ZM2.64296 4.52115C2.96601 4.12495 3.53591 3.8781 4.35268 3.78057V8.11429C3.91382 8.02896 3.55116 7.91619 3.26468 7.776C2.9782 7.63581 2.75268 7.47124 2.58811 7.28229C2.42353 7.09334 2.31077 6.88 2.24982 6.64229C2.18887 6.40457 2.15839 6.13943 2.15839 5.84686C2.15839 5.35924 2.31991 4.91734 2.64296 4.52115Z" fill="#10C176"/>
</svg>
