<svg width="56" height="56" viewBox="0 0 56 56" fill="none" xmlns="http://www.w3.org/2000/svg">
<path fill-rule="evenodd" clip-rule="evenodd" d="M53.2733 27.1415C54.4566 27.743 55.3516 28.7908 55.7605 30.0535C56.5993 32.6705 55.165 35.4731 52.5516 36.3236L47.5211 37.9594L49.2096 43.1506C49.9329 45.7302 48.4921 48.4211 45.944 49.2493C43.3959 50.0776 40.6481 48.7484 39.7161 46.2366L38.0276 41.0699L27.5182 44.4852L29.2067 49.6693C29.9212 52.2463 28.4793 54.9288 25.9356 55.7547C23.392 56.5806 20.6491 55.2569 19.7132 52.7518L18.0422 47.5606L12.8471 49.249C10.2699 49.9634 7.58717 48.5216 6.7612 45.9782C5.93522 43.4348 7.25903 40.6922 9.7643 39.7564L14.9314 38.068L11.5159 27.5595L6.33123 29.2479C3.75407 29.9623 1.07134 28.5205 0.245367 25.9771C-0.580609 23.4337 0.743197 20.6911 3.24847 19.7553L8.44012 18.0704L6.80415 13.0368C5.95191 10.4146 7.387 7.59795 10.0095 6.74578C12.632 5.89361 15.4489 7.32857 16.3011 9.95086L17.9336 14.9739L28.443 11.5587L26.807 6.53561C26.2557 4.83928 26.6514 2.97772 27.8449 1.65216C29.0384 0.326594 30.8486 -0.261591 32.5934 0.109167C34.3382 0.479925 35.7527 1.7533 36.304 3.44962L37.9435 8.47967L42.974 6.84386C44.6705 6.2926 46.5322 6.68819 47.8579 7.88162C49.1836 9.07505 49.7718 10.885 49.401 12.6297C49.0302 14.3744 47.7567 15.7887 46.0603 16.34L41.0298 17.9758L44.4453 28.4843L49.4548 26.8485C50.716 26.4346 52.0901 26.5401 53.2733 27.1415ZM31.5293 21.0618L21.0199 24.4771L24.4354 34.9855L34.9448 31.5703L31.5293 21.0618Z" fill="white"/>
</svg>
